<?xml version="1.0" encoding="UTF-8"?>
<svg version="1.1" xmlns="http://www.w3.org/2000/svg" width="1024" height="1024">
<path d="M0 0 C337.92 0 675.84 0 1024 0 C1024 337.92 1024 675.84 1024 1024 C686.08 1024 348.16 1024 0 1024 C0 686.08 0 348.16 0 0 Z " fill="#FEFEFE" transform="translate(0,0)"/>
<path d="M0 0 C2.09123944 -0.00961489 4.18145501 -0.04065854 6.27246094 -0.07226562 C18.93443809 -0.17290732 30.86520502 1.90905378 42.87402344 6.05273438 C43.63142822 6.31135254 44.38883301 6.5699707 45.16918945 6.83642578 C68.17832347 14.947471 85.29853776 31.81986162 96.43652344 53.17773438 C105.43855516 72.21967913 107.88462463 90.4936178 107.99902344 111.30273438 C108.0069693 112.06065277 108.01491516 112.81857117 108.02310181 113.59945679 C108.14368809 128.59937729 106.29351196 142.88720342 101.31152344 157.11523438 C101.00520996 158.00525146 100.69889648 158.89526855 100.38330078 159.81225586 C92.62289617 181.75720118 76.74326509 200.93581773 55.63037109 211.21044922 C51.37217097 213.10774999 47.03102013 214.71910971 42.62402344 216.24023438 C41.92768799 216.49281006 41.23135254 216.74538574 40.51391602 217.00561523 C12.26828786 226.96940311 -20.31022511 224.1734572 -47.37597656 212.24023438 C-69.53126881 201.4485432 -83.18782755 183.99996345 -93.37597656 162.24023438 C-94.0140625 160.90992188 -94.0140625 160.90992188 -94.66503906 159.55273438 C-97.94910013 152.13226052 -99.10180247 144.20179353 -100.37597656 136.24023438 C-100.63616577 134.65009521 -100.63616577 134.65009521 -100.90161133 133.02783203 C-101.41560715 128.92380157 -101.55553736 124.93676922 -101.57910156 120.80664062 C-101.58480164 120.01104233 -101.59050171 119.21544403 -101.59637451 118.39573669 C-101.60577722 116.71574206 -101.61233956 115.03572938 -101.61621094 113.35571289 C-101.62583034 110.84096077 -101.65686244 108.32705792 -101.68847656 105.8125 C-101.86051741 79.60241601 -94.50160667 52.87366027 -76.37597656 33.24023438 C-75.49296875 32.26570313 -74.60996094 31.29117187 -73.70019531 30.28710938 C-54.31146597 9.53776745 -28.0462329 0.07758294 0 0 Z " fill="#020202" transform="translate(304.3759765625,414.759765625)"/>
<path d="M0 0 C2.20140468 1.64056154 4.19343622 3.36079922 6.19140625 5.2421875 C6.94550781 5.90734375 7.69960938 6.5725 8.4765625 7.2578125 C16.4488217 14.65777263 22.03159539 23.83339878 25.19140625 34.2421875 C25.19140625 35.5621875 25.19140625 36.8821875 25.19140625 38.2421875 C14.67584463 42.62367151 3.29944813 44.86189281 -7.80859375 47.2421875 C-7.94394531 46.69691406 -8.07929687 46.15164063 -8.21875 45.58984375 C-10.85363228 36.3598669 -16.10008836 29.54336822 -24.296875 24.51953125 C-28.95969633 22.14823642 -33.76824789 20.60196952 -38.80859375 19.2421875 C-39.64777344 19.0153125 -40.48695313 18.7884375 -41.3515625 18.5546875 C-56.99220624 15.06282285 -75.28486462 15.99531864 -89.515625 23.65625 C-95.13072777 27.5399497 -99.72442857 32.68763904 -101.80859375 39.2421875 C-102.81510843 46.13946181 -101.91558039 51.95547982 -98.46875 58.0234375 C-89.9882187 69.35741815 -72.27662551 72.13233939 -59.30859375 75.2421875 C-57.89165106 75.589539 -56.474905 75.93769351 -55.05834961 76.28662109 C-48.93495024 77.78945216 -42.80355413 79.25392529 -36.65625 80.65625 C-13.16443236 86.0175495 10.36117078 92.72365017 24.171875 113.8515625 C32.82468496 128.37891074 33.30312078 146.78401044 29.2890625 162.93359375 C23.32811818 180.90128 11.03194162 191.45936352 -5.12890625 199.99609375 C-33.5643437 212.91834835 -71.73278757 211.5960013 -100.68359375 200.90234375 C-121.49946253 192.75010309 -134.74716628 179.29977965 -143.80859375 159.2421875 C-145.36443331 155.64942642 -146.03343312 153.17687649 -145.80859375 149.2421875 C-139.61208445 147.10969511 -133.38576861 145.19759827 -127.05859375 143.4921875 C-126.23488281 143.25886719 -125.41117187 143.02554688 -124.5625 142.78515625 C-116.43938649 140.60067967 -116.43938649 140.60067967 -112.80859375 142.2421875 C-111.69140625 144.2109375 -111.69140625 144.2109375 -110.93359375 146.7421875 C-107.02834226 157.67689166 -99.2412379 164.37678119 -89.30859375 169.8671875 C-77.51251101 175.34014481 -66.50347627 176.60752442 -53.62109375 176.6796875 C-52.45787598 176.6897583 -51.2946582 176.6998291 -50.09619141 176.71020508 C-37.10027884 176.58074177 -21.10451606 174.37791099 -11.28125 164.97265625 C-5.59691403 158.29318455 -4.87767499 150.56837427 -5.30859375 142.0625 C-6.18155243 135.39255008 -8.75157243 131.71285277 -13.90625 127.546875 C-26.26384604 119.33598481 -42.45467742 116.56694135 -56.75390625 113.3515625 C-114.85203086 100.21099251 -114.85203086 100.21099251 -129.80859375 79.2421875 C-138.48880425 64.23382354 -140.29969741 47.12337004 -135.83203125 30.359375 C-130.80455543 15.04668148 -121.02423765 3.80759455 -106.80859375 -3.7578125 C-105.95910156 -4.21671875 -105.10960937 -4.675625 -104.234375 -5.1484375 C-96.45667596 -9.00822237 -88.23756988 -10.89283296 -79.80859375 -12.7578125 C-79.06351562 -12.9343335 -78.3184375 -13.11085449 -77.55078125 -13.29272461 C-51.74197274 -17.67001986 -22.30933574 -13.96272751 0 0 Z " fill="#030303" transform="translate(574.80859375,428.7578125)"/>
<path d="M0 0 C8.39221551 7.83713984 14.40688249 18.11228566 17.9375 29 C18.30875 30.134375 18.68 31.26875 19.0625 32.4375 C25.35332766 58.05015548 24.74484716 89.53999963 10.88085938 112.77050781 C1.11174968 127.86422234 -12.70691242 136.77485696 -30.0625 141 C-30.65861084 141.17128418 -31.25472168 141.34256836 -31.86889648 141.51904297 C-50.09093787 145.51430413 -69.32223868 141.27217294 -85.0625 132 C-101.7203799 121.1747111 -109.4639497 103.73603353 -113.75390625 84.9765625 C-118.1599103 60.01947663 -116.39211733 31.99520846 -101.9375 10.5625 C-92.61998022 -2.17144371 -80.44562022 -10.89783461 -65.0625 -15 C-40.72150772 -18.68718904 -19.3555161 -16.01121439 0 0 Z " fill="#FDFDFD" transform="translate(354.0625,463)"/>
<path d="M0 0 C47.52 0 95.04 0 144 0 C144 9.24 144 18.48 144 28 C141.36 30.64 138.72 33.28 136 36 C134.3409942 37.8823335 132.68285019 39.76558476 131.046875 41.66796875 C128.41833259 44.66270123 125.71071714 47.57974071 123 50.5 C119.21346531 54.5828016 115.48232181 58.69770607 111.83984375 62.91015625 C109.43329565 65.64370877 106.96682764 68.32100778 104.5 71 C97.11147983 78.81339953 97.11147983 78.81339953 90.4375 87.21875 C89.963125 87.8065625 89.48875 88.394375 89 89 C88.34 89 87.68 89 87 89 C87 89.66 87 90.32 87 91 C87.85658203 90.94779297 87.85658203 90.94779297 88.73046875 90.89453125 C106.60443215 90.29778525 123.07151274 97.67722366 136.125 109.5625 C147.07751695 121.00377024 151.54590754 134.84140357 151.375 150.375 C151.38660156 151.42171875 151.39820313 152.4684375 151.41015625 153.546875 C151.35213383 169.21292788 146.4949213 184.24833392 136 196 C135.42765625 196.67675781 134.8553125 197.35351562 134.265625 198.05078125 C120.69438332 212.98494677 100.05039213 217.92467516 80.64746094 219.22460938 C56.48498111 220.18970987 31.66420012 217.22841549 12.75 200.625 C11.14857942 199.10213011 9.56397733 197.56129929 8 196 C7.3503125 195.36191406 6.700625 194.72382812 6.03125 194.06640625 C-1.44087 186.18463055 -8 174.05503283 -8 163 C2.61852385 160.06224578 13.03975018 157.31837834 24 156 C24.27972656 156.76183594 24.55945313 157.52367187 24.84765625 158.30859375 C30.05975611 171.73268374 36.73864376 179.08037105 49.75390625 185.3203125 C63.72211055 190.63976181 82.7654943 190.14966492 96.5 184.3125 C104.27403157 180.70073058 110.85073282 174.71277076 113.90234375 166.6015625 C117.26600276 155.78205103 117.24945511 146.13562612 112 136 C106.99106193 127.01845587 99.47914848 122.47442892 90 119 C84.48131596 117.43393161 79.50217738 116.68001767 73.78125 116.5859375 C73.03790405 116.56657135 72.29455811 116.5472052 71.52868652 116.5272522 C69.18590277 116.4681181 66.84306808 116.42134004 64.5 116.375 C62.89841767 116.33675906 61.29685457 116.29770391 59.6953125 116.2578125 C55.79703363 116.16247248 51.89865878 116.07820206 48 116 C45.91960407 95.18803921 45.91960407 95.18803921 50.35546875 88.9296875 C52.80985695 86.12837357 55.56447354 83.70065821 58.43554688 81.33496094 C60.75066179 79.35945402 62.69572348 77.10798712 64.6875 74.8125 C65.40679688 74.01070313 66.12609375 73.20890625 66.8671875 72.3828125 C67.92292969 71.20332031 67.92292969 71.20332031 69 70 C73.99765251 64.41654207 79.03254149 58.87194792 84.125 53.375 C89.51730547 47.5500934 94.84166314 41.6919962 99.8125 35.5 C100.534375 34.675 101.25625 33.85 102 33 C102.66 33 103.32 33 104 33 C104 32.34 104 31.68 104 31 C69.68 31 35.36 31 0 31 C0 20.77 0 10.54 0 0 Z " fill="#030303" transform="translate(634,418)"/>
<path d="M0 0 C13.86 0 27.72 0 42 0 C42 10.00712569 42 10.00712569 37.88085938 14.21679688 C37.32205078 14.74337891 36.76324219 15.26996094 36.1875 15.8125 C35.09637182 16.9010578 34.00649228 17.99086888 32.91796875 19.08203125 C32.4079834 19.5817041 31.89799805 20.08137695 31.37255859 20.59619141 C29.73051929 22.27561617 28.33320448 24.06802298 27 26 C27.66386719 26.23074219 28.32773437 26.46148437 29.01171875 26.69921875 C34.4062182 28.69163971 38.30330102 30.40713157 42 35 C42.598125 35.70125 43.19625 36.4025 43.8125 37.125 C46.12097904 42.71394926 45.79920126 48.7285859 43.8125 54.375 C39.51471586 60.59937703 34.47564231 64.48628202 27 66 C18.22350185 66.83245917 11.30124438 66.18987707 4 61 C0.18193604 57.6411843 -1.71349102 53.9121252 -3 49 C0.87684087 47.80712589 3.91621923 47 8 47 C8.391875 47.928125 8.78375 48.85625 9.1875 49.8125 C11.22648139 53.39829487 12.1869458 54.50793531 16 56 C21.74560299 56.76466435 26.01942411 56.15841398 31 53 C33.22229436 51.19925055 33.22229436 51.19925055 33.23046875 48.72265625 C33.21628906 47.84480469 33.20210937 46.96695313 33.1875 46.0625 C33.17783203 44.74958984 33.17783203 44.74958984 33.16796875 43.41015625 C33.09069243 40.8562325 33.09069243 40.8562325 32 38 C27.74713296 36.14489182 23.72664363 35.65673328 19.125 35.375 C17.97257813 35.30023438 16.82015625 35.22546875 15.6328125 35.1484375 C14.76398437 35.09945312 13.89515625 35.05046875 13 35 C12.6176175 30.81962917 12.51868254 28.68392738 14.9765625 25.19140625 C15.85054687 24.32386719 16.72453125 23.45632813 17.625 22.5625 C21.97550195 18.17933663 25.18872014 14.08170648 29 9 C19.43 9 9.86 9 0 9 C0 6.03 0 3.06 0 0 Z " fill="#090909" transform="translate(794,418)"/>
</svg>
