<?xml version="1.0" encoding="UTF-8"?>
<svg version="1.1" xmlns="http://www.w3.org/2000/svg" width="1024" height="1024">
<path d="M0 0 C3.82823274 0.00228492 7.6564611 -0.00124125 11.48469293 -0.00397992 C18.97332655 -0.008408 26.4619501 -0.00747314 33.95058411 -0.00456728 C40.06152895 -0.00229601 46.172471 -0.00200817 52.28341615 -0.0030911 C53.15799185 -0.00324433 54.03256754 -0.00339756 54.93364554 -0.00355544 C56.71153716 -0.00387523 58.48942878 -0.00419945 60.2673204 -0.00452803 C76.920551 -0.00737561 93.57377609 -0.00411002 110.22700579 0.00127234 C124.40444686 0.00571381 138.58187971 0.00498515 152.75932062 0.00035357 C169.30746651 -0.00505013 185.85560753 -0.00707398 202.40375417 -0.00403416 C204.18468642 -0.00371571 205.96561867 -0.00340134 207.74655092 -0.0030911 C208.62221562 -0.00293682 209.49788031 -0.00278255 210.4000803 -0.0026236 C216.46116271 -0.00177368 222.52224192 -0.00320632 228.58332384 -0.00557065 C266.30926264 -0.01905584 304.007407 0.1108398 341.72294366 1.13072467 C343.09398049 3.87279832 342.83979406 6.03749652 342.83037412 9.10839534 C342.82813368 11.03258359 342.82813368 11.03258359 342.82584798 12.99564433 C342.81906688 14.4317543 342.81219233 15.86786383 342.80523431 17.30397296 C342.80155431 18.81582805 342.79831593 20.32768428 342.79548395 21.8395412 C342.78636435 26.0176882 342.77092145 30.19579229 342.75451763 34.37391618 C342.7377022 38.93977112 342.72671326 43.50564066 342.71500051 48.07151103 C342.69135972 56.94428206 342.66252973 65.81702877 342.63191262 74.68977817 C342.59673792 84.94767092 342.56797378 95.20557497 342.53922784 105.46348834 C342.46010857 132.56091699 342.37223656 159.65831951 342.28544366 186.75572467 C342.00700616 277.52634967 342.00700616 277.52634967 341.72294366 370.13072467 C214.01294366 370.13072467 86.30294366 370.13072467 -45.27705634 370.13072467 C-45.29768134 309.43134967 -45.31830634 248.73197467 -45.33955634 186.19322467 C-45.34866034 166.99014117 -45.35776434 147.78705768 -45.36714423 128.00206256 C-45.37166083 104.64720416 -45.37166083 104.64720416 -45.37250006 93.73202777 C-45.37343597 86.06873529 -45.37711833 78.40545003 -45.3826319 70.74215961 C-45.38897299 61.91573541 -45.39189799 53.08931817 -45.39050129 44.26289168 C-45.38989581 39.74258212 -45.39089166 35.22228816 -45.39627147 30.70198143 C-45.40109743 26.62248218 -45.40140631 22.54300973 -45.39795744 18.46350932 C-45.39752989 16.98112725 -45.39882801 15.49874357 -45.40193892 14.01636469 C-45.40590286 12.01123525 -45.40321247 10.00609584 -45.40010417 8.00096488 C-45.40048389 6.88344795 -45.40086361 5.76593102 -45.40125483 4.61454993 C-45.27705634 2.13072467 -45.27705634 2.13072467 -44.27705634 1.13072467 C-29.65933983 -0.67453936 -14.69867505 -0.01300424 0 0 Z M16.72294366 59.13072467 C14.43398839 70.57550103 15.72294366 82.45929707 15.72294366 94.13072467 C37.83294366 94.13072467 59.94294366 94.13072467 82.72294366 94.13072467 C82.22794366 95.12072467 82.22794366 95.12072467 81.72294366 96.13072467 C81.63344573 98.03426855 81.60983113 99.94103086 81.6161474 101.84666705 C81.61766305 103.06343127 81.61917871 104.28019549 81.62074029 105.53383136 C81.6274699 106.88969721 81.63427797 108.24556268 81.64115655 109.60142779 C81.64471154 111.0239019 81.64779784 112.44637725 81.65044916 113.86885333 C81.65701061 116.93762935 81.6665774 120.00637648 81.67834413 123.0751369 C81.69662228 127.93395108 81.70623326 132.79275817 81.71426141 137.65159869 C81.73841991 151.47051854 81.7741548 165.28939566 81.81889093 179.10826373 C81.84350853 186.73629317 81.86083035 194.36430552 81.87045032 201.99236894 C81.87696744 206.81503959 81.89247411 211.63756927 81.91476774 216.46019149 C81.92656868 219.47400639 81.92986931 222.48778786 81.93086565 225.50162387 C81.93299817 226.89068463 81.93853763 228.2797454 81.94789636 229.66877627 C82.0845312 250.78122475 82.0845312 250.78122475 74.90653741 259.21275592 C69.54039117 263.92613303 62.07455142 265.94907588 54.98466241 265.57994342 C49.23795545 264.43854221 43.7563707 261.6707423 39.78544366 257.31822467 C34.20607923 248.69557055 34.20302513 240.6834434 34.03544366 230.63072467 C33.93231866 225.84572467 33.82919366 221.06072467 33.72294366 216.13072467 C21.84294366 216.13072467 9.96294366 216.13072467 -2.27705634 216.13072467 C-3.67108216 239.82916361 -4.31472558 261.46694004 12.03544366 280.38072467 C24.35737692 293.33717608 38.63991112 300.84319153 56.53275812 301.46055865 C73.51457772 301.76702989 87.95995743 296.38828938 100.37138116 284.60728717 C115.9075012 268.24532686 118.05001323 250.0376815 117.96586359 228.38926959 C117.9669395 226.75963523 117.96888275 225.13000125 117.97161615 223.50036883 C117.97641945 219.11586011 117.96886454 214.73145486 117.95866311 210.34695864 C117.94980029 205.72917184 117.95164168 201.1113875 117.95202386 196.49359393 C117.95109042 188.73940079 117.94245202 180.98524702 117.92875421 173.23106647 C117.91304889 164.30837367 117.90775578 155.38572398 117.90848976 146.46301836 C117.90916926 136.90733421 117.90220442 127.35166632 117.89304316 117.79598713 C117.89092767 115.06836977 117.89020415 112.3407551 117.88980424 109.61313701 C117.88878746 105.2997059 117.88258414 100.98630988 117.87263811 96.67289042 C117.86975775 95.10455295 117.86847846 93.53621144 117.86906564 91.96787143 C117.87095464 83.83933106 117.72316005 75.74012936 117.27636468 67.62262225 C117.21835082 66.51786761 117.21835082 66.51786761 117.15916497 65.39079469 C117.22923102 61.96780152 117.22923102 61.96780152 115.72294366 59.13072467 C112.81691856 59.03013846 109.93462326 58.9945727 107.02811944 59.00133014 C106.11595666 58.99957782 105.20379388 58.9978255 104.26398981 58.99602008 C101.23205955 58.99159915 98.20018708 58.99454088 95.16825616 58.99791217 C93.06936892 58.99723908 90.97048176 58.99626902 88.87159479 58.995013 C84.46477778 58.9935356 80.05798099 58.99569148 75.65116632 59.00035357 C69.99601442 59.00604388 64.34091005 59.00277654 58.6857599 58.99678111 C54.34841812 58.99317065 50.01108763 58.99431645 45.67374551 58.9969089 C43.58849206 58.99757719 41.50323759 58.99675317 39.41798532 58.99442935 C36.50414817 58.99189568 33.59038832 58.99575392 30.67655694 59.00133014 C29.37663812 58.99829379 29.37663812 58.99829379 28.05045831 58.9951961 C24.6908854 59.00713322 21.93243046 59.06089574 18.72294366 60.13072467 C18.06294366 59.80072467 17.40294366 59.47072467 16.72294366 59.13072467 Z M180.72294366 59.13072467 C179.82118808 61.83599141 179.59706215 63.38116238 179.59430921 66.15598369 C179.59108476 66.9774713 179.58786032 67.79895891 179.58453816 68.64534009 C179.58608676 69.54756381 179.58763537 70.44978754 179.5892309 71.37935138 C179.58696534 72.33802163 179.58469978 73.29669188 179.58236557 74.28441274 C179.576013 77.51102751 179.57685574 80.73760041 179.57767999 83.96422076 C179.57468929 86.27179273 179.57128696 88.57936419 179.56750238 90.886935 C179.5586492 97.16582111 179.55632371 103.44469361 179.55568659 109.72358537 C179.5547385 114.9598527 179.55106136 120.19611684 179.5475145 125.43238294 C179.53983078 137.07733495 179.53684633 148.7222803 179.53751985 160.36723463 C179.53755981 161.06616877 179.53759976 161.7651029 179.53764093 162.48521686 C179.53768181 163.18500327 179.53772269 163.88478969 179.53776481 164.60578175 C179.53817129 175.94774813 179.52860159 187.28968132 179.51450256 198.63163809 C179.50014383 210.27427787 179.49341531 221.91689993 179.49409634 233.55954874 C179.4943517 240.09729036 179.49147967 246.63499443 179.48091829 253.1727283 C179.47125858 259.32041829 179.4711435 265.46803465 179.47843492 271.61572719 C179.47948341 273.87443596 179.47710228 276.13314926 179.47107446 278.39185023 C179.46338895 281.47069778 179.46797658 284.54928889 179.4757055 287.62813067 C179.46799016 288.9747741 179.46799016 288.9747741 179.46011895 290.34862244 C179.46471775 291.17532555 179.46931654 292.00202865 179.47405469 292.85378337 C179.47383733 293.56413277 179.47361996 294.27448217 179.473396 295.00635731 C179.6952563 297.69112505 179.6952563 297.69112505 181.72294366 302.13072467 C192.94294366 302.13072467 204.16294366 302.13072467 215.72294366 302.13072467 C215.72294366 291.57072467 215.72294366 281.01072467 215.72294366 270.13072467 C215.06294366 270.13072467 214.40294366 270.13072467 213.72294366 270.13072467 C213.39294366 268.15072467 213.06294366 266.17072467 212.72294366 264.13072467 C213.71294366 264.46072467 214.70294366 264.79072467 215.72294366 265.13072467 C215.78083373 261.67246125 215.81650187 258.21432173 215.84794366 254.75572467 C215.86470148 253.77088092 215.88145929 252.78603717 215.89872491 251.77134967 C215.90517023 250.83033404 215.91161554 249.88931842 215.91825616 248.91978717 C215.9287298 248.05047565 215.93920343 247.18116412 215.94999444 246.28550982 C215.92889475 243.91726528 215.92889475 243.91726528 213.72294366 242.13072467 C214.38294366 242.13072467 215.04294366 242.13072467 215.72294366 242.13072467 C215.72294366 241.47475299 215.72294366 240.81878131 215.72294366 240.1429317 C215.72294366 218.13072467 215.72294366 218.13072467 215.7388128 215.8082149 C215.75951904 212.72822777 215.77252563 209.64825381 215.78544366 206.56822467 C215.79801202 204.9488399 215.79801202 204.9488399 215.81083429 203.29674029 C215.81405694 202.27129107 215.8172796 201.24584186 215.82059991 200.18931842 C215.82583673 199.24371051 215.83107355 198.2981026 215.83646905 197.3238399 C215.96956614 195.15414472 215.96956614 195.15414472 214.72294366 194.13072467 C220.61921167 192.75528786 226.33293403 193.11907452 232.34794366 193.31822467 C233.47329523 193.33691607 234.59864679 193.35560748 235.75809991 193.37486529 C245.97201839 193.71139324 256.06951609 195.9195806 263.72294366 203.13072467 C271.55333689 211.58527967 274.36106913 220.46585576 274.18900812 231.80455279 C273.74073682 242.1943061 270.4787603 249.43128886 263.23466241 256.96275592 C257.22919163 262.14632712 250.29545094 265.0520993 242.39481866 265.44713092 C241.67391046 265.48523883 240.95300226 265.52334674 240.21024835 265.56260943 C239.3069378 265.60571246 238.40362726 265.64881549 237.47294366 265.69322467 C233.14169366 265.90978717 233.14169366 265.90978717 228.72294366 266.13072467 C228.72294366 277.68072467 228.72294366 289.23072467 228.72294366 301.13072467 C236.53502759 305.03676663 252.99513422 301.50318771 261.02763116 299.13463092 C269.91215322 295.82546835 277.62247533 291.40468346 284.72294366 285.13072467 C285.5466546 284.41271686 286.37036554 283.69470904 287.21903741 282.95494342 C297.65062407 273.25372661 303.25349508 261.89091059 306.72294366 248.13072467 C306.89656427 247.51890338 307.07018487 246.90708209 307.24906671 246.27672076 C311.04177969 229.10106537 307.21952409 210.67457335 298.44950616 195.72056842 C293.19180949 187.83402341 287.12777278 181.04248198 279.72294366 175.13072467 C280.96044366 173.95509967 280.96044366 173.95509967 282.22294366 172.75572467 C284.95282872 170.49351202 284.95282872 170.49351202 284.72294366 168.13072467 C285.31075616 167.90513873 285.89856866 167.67955279 286.50419366 167.44713092 C293.45716822 163.32186256 298.11562907 151.85527673 300.26029718 144.21690631 C301.70457849 138.38514649 302.07280541 132.81203738 302.03544366 126.81822467 C302.03125421 125.89614215 302.02706476 124.97405963 302.02274835 124.02403522 C301.90719304 117.03478276 301.05848869 110.75148708 298.72294366 104.13072467 C298.46770929 103.31088092 298.21247491 102.49103717 297.94950616 101.64634967 C292.22984073 85.16951529 279.66223108 73.34691097 264.72294366 65.13072467 C252.80037666 59.47147953 240.2060828 58.8299545 227.20731866 58.93541217 C225.85683661 58.93915393 224.50635179 58.94199538 223.15586603 58.94398761 C219.64439316 58.95153268 216.13309238 58.97109965 212.62168634 58.99339557 C209.02134786 59.01405367 205.42098089 59.02303149 201.82059991 59.03306842 C194.7879785 59.05435668 187.75547247 59.08837855 180.72294366 59.13072467 Z M214.72294366 267.13072467 C215.72294366 269.13072467 215.72294366 269.13072467 215.72294366 269.13072467 Z " fill="#040505" transform="translate(363.2770563364029,303.8692753314972)"/>
<path d="M0 0 C0.33 0.66 0.66 1.32 1 2 C1.78375 1.835 2.5675 1.67 3.375 1.5 C10.35349248 0.53744931 17.06815006 0.9516754 24.02734375 1.84765625 C26.48427237 2.03739925 28.61371109 1.56147974 31 1 C31.99 1.33 32.98 1.66 34 2 C34.825 1.835 35.65 1.67 36.5 1.5 C39 1 39 1 42 2 C43.59459526 2.00420738 45.18983537 1.94450318 46.78125 1.84375 C47.70550781 1.79089844 48.62976563 1.73804688 49.58203125 1.68359375 C50.54496094 1.62300781 51.50789063 1.56242187 52.5 1.5 C54.40592188 1.38008256 56.31217392 1.26527318 58.21875 1.15625 C59.4862207 1.07600586 59.4862207 1.07600586 60.77929688 0.99414062 C63 1 63 1 66 2 C67.85227252 2.09357692 69.7078718 2.12993909 71.5625 2.125 C73.01849609 2.12886719 73.01849609 2.12886719 74.50390625 2.1328125 C76.99952953 2.16650953 76.99952953 2.16650953 79 1 C89.87259512 0.47415614 100.83165492 1.18868482 111.69482422 1.6484375 C119.81389322 1.97460459 127.90398044 2.07686969 136.02612305 1.78710938 C143.15673662 1.65096401 150.61841342 2.8113727 156.375 7.3125 C161.28952922 12.34404182 164.07910087 16.74488784 164.20321465 23.80330181 C164.22273146 24.79771467 164.24224828 25.79212753 164.26235652 26.81667411 C164.2786521 27.9112163 164.29494768 29.00575849 164.31173706 30.13346863 C164.33220069 31.29241548 164.35266432 32.45136233 164.37374806 33.64542878 C164.42838194 36.86454559 164.4780593 40.08368626 164.52447405 43.30293097 C164.55442789 45.36412404 164.58592113 47.42528901 164.61772132 49.48645437 C165.13157868 83.17485727 165.14824235 116.86357029 165.13530041 150.55515658 C165.13297695 156.76621 165.13274592 162.9772607 165.13381577 169.18831444 C165.133969 170.08809962 165.13412223 170.98788481 165.13428011 171.91493621 C165.13459995 173.74491666 165.13492417 175.57489711 165.1352527 177.40487757 C165.13806492 194.32630941 165.13488485 211.24773572 165.12945233 228.16916665 C165.12495317 242.63255586 165.12579384 257.09593708 165.13037109 271.55932617 C165.13573313 288.50962349 165.13782665 305.45991608 165.13475883 322.41021413 C165.13444037 324.21794108 165.134126 326.02566804 165.13381577 327.833395 C165.13366149 328.72210594 165.13350721 329.61081688 165.13334826 330.52645845 C165.13249059 336.74036569 165.13392897 342.95426988 165.13629532 349.16817665 C165.13911018 356.72217366 165.13831816 364.27616029 165.13301457 371.83015613 C165.13040563 375.67057923 165.12932481 379.51098507 165.13266373 383.351408 C165.16890375 429.22593811 165.16890375 429.22593811 160 436 C157.51619179 438.34610221 154.93253694 440.25307858 152 442 C151.401875 442.36222656 150.80375 442.72445313 150.1875 443.09765625 C143.17679321 445.9895728 134.90882371 445.15531211 127.48703003 445.16494751 C126.10298187 445.17023488 124.71893529 445.17594821 123.33489048 445.18204916 C119.53897901 445.19753126 115.7430734 445.2069115 111.94714046 445.21526766 C107.84637045 445.2253533 103.74562145 445.24107624 99.64486694 445.25605774 C91.59684669 445.28452813 83.54881951 445.3076527 75.50077711 445.3288355 C68.92306011 445.34622878 62.34535091 445.36546793 55.76764297 445.38599777 C54.8282383 445.38892637 53.88883362 445.39185496 52.92096213 445.3948723 C51.01128632 445.40083065 49.10161052 445.40679186 47.19193472 445.41275589 C29.25006414 445.46854681 11.3081804 445.51814786 -6.63371347 445.5657609 C-22.87585554 445.6090319 -39.11796656 445.65926674 -55.3600768 445.71309371 C-72.14243342 445.76865626 -88.92479848 445.81958098 -105.70718372 445.86572587 C-107.62847767 445.87102201 -109.54977161 445.87632461 -111.47106552 445.88163376 C-112.88797767 445.88554851 -112.88797767 445.88554851 -114.33351431 445.88954235 C-120.83594929 445.90778418 -127.33837128 445.92883809 -133.84079361 445.9510994 C-169.84820409 446.07290496 -205.85197437 446.11216531 -241.85740599 445.65803382 C-244.11104983 445.63067676 -246.36470691 445.60659283 -248.618397 445.58338857 C-252.7505322 445.53999428 -256.88224276 445.4798421 -261.01412964 445.41708374 C-262.22088813 445.40525299 -263.42764661 445.39342224 -264.67097354 445.38123298 C-274.96432492 445.19600035 -282.9487305 443.82849287 -291 437 C-297.47307375 428.86716375 -297.06509494 417.55052231 -297.6875 407.5625 C-297.73608154 406.80541748 -297.78466309 406.04833496 -297.8347168 405.26831055 C-298.05636083 401.00603436 -297.83627002 397.21232309 -297 393 C-296.8429061 389.15119947 -297.11787453 385.74903323 -298 382 C-297.34 382 -296.68 382 -296 382 C-296.33 381.34 -296.66 380.68 -297 380 C-297.09735819 377.68917466 -297.12977373 375.37537042 -297.125 373.0625 C-297.12757813 371.81597656 -297.13015625 370.56945312 -297.1328125 369.28515625 C-297 366 -297 366 -296 363 C-296.66 363 -297.32 363 -298 363 C-298 362.34 -298 361.68 -298 361 C-297.34 361 -296.68 361 -296 361 C-296.16371094 360.03578125 -296.32742188 359.0715625 -296.49609375 358.078125 C-297.1312787 353.62846959 -297.1103074 349.23654077 -297.0625 344.75 C-297.05573242 343.54730469 -297.05573242 343.54730469 -297.04882812 342.3203125 C-297.03649737 340.21351488 -297.01858899 338.10675169 -297 336 C-297 335.01 -297 334.02 -297 333 C-296.67 332.34 -296.34 331.68 -296 331 C-296.66 331 -297.32 331 -298 331 C-297.83701416 330.28666504 -297.67402832 329.57333008 -297.50610352 328.83837891 C-297.00239754 326.01344609 -296.88600007 323.45186547 -296.90234375 320.5859375 C-296.90556641 319.57789063 -296.90878906 318.56984375 -296.91210938 317.53125 C-296.92048828 316.4896875 -296.92886719 315.448125 -296.9375 314.375 C-296.94426758 312.80105469 -296.94426758 312.80105469 -296.95117188 311.1953125 C-296.95988117 309.25438298 -296.97064526 307.31346081 -296.98413086 305.37255859 C-296.99610898 303.58173798 -297 301.79086068 -297 300 C-297.495 298.515 -297.495 298.515 -298 297 C-297.34 297 -296.68 297 -296 297 C-296.495 295.515 -296.495 295.515 -297 294 C-297.06872817 290.7053432 -296.99747054 287.42353792 -296.9375 284.12890625 C-296.98973681 281.51380082 -297.22184761 279.47428143 -298 277 C-297.67 277 -297.34 277 -297 277 C-296.97290556 274.91673869 -296.95356127 272.83337559 -296.9375 270.75 C-296.92589844 269.58984375 -296.91429687 268.4296875 -296.90234375 267.234375 C-296.86685167 264.16597001 -296.86685167 264.16597001 -297.56640625 261.953125 C-298.18615579 259.16146038 -297.48681451 256.80932538 -297 254 C-296.94568771 250.66318865 -296.97559063 247.34521236 -297.0390625 244.00976562 C-297.09051822 239.53740616 -296.73329032 235.3940131 -296 231 C-296.66 231 -297.32 231 -298 231 C-297.505 230.01 -297.505 230.01 -297 229 C-296.90388248 227.37731009 -296.87017648 225.75052694 -296.875 224.125 C-296.87242187 223.26132812 -296.86984375 222.39765625 -296.8671875 221.5078125 C-296.90937083 219.04418734 -296.90937083 219.04418734 -297.56640625 216.9140625 C-298.28745508 213.73105416 -296.99017234 211.02876244 -296 208 C-296.66 207.67 -297.32 207.34 -298 207 C-298.12527964 200.61073826 -298.12527964 200.61073826 -297.5 197.5625 C-296.70899089 193.50857832 -296.1201 188.75979999 -298 185 C-297.34 185 -296.68 185 -296 185 C-296.165 184.278125 -296.33 183.55625 -296.5 182.8125 C-296.97733692 180.12747983 -297 177.71690755 -297 175 C-297.185625 174.34 -297.37125 173.68 -297.5625 173 C-298.12734413 170.41785543 -297.54053367 168.58254975 -297 166 C-296.85083593 161.82340595 -297.01459224 158.064807 -298 154 C-297.34 153.67 -296.68 153.34 -296 153 C-296.33 152.01 -296.66 151.02 -297 150 C-297.04560393 147.83381332 -297.03834208 145.66632738 -297 143.5 C-296.94866093 137.99531109 -297.21557354 132.66928946 -297.87890625 127.20703125 C-298 125 -298 125 -297 122 C-296.90434686 119.70995138 -296.87015425 117.4170403 -296.875 115.125 C-296.87242187 113.91070312 -296.86984375 112.69640625 -296.8671875 111.4453125 C-296.90170622 108.09372573 -296.90170622 108.09372573 -297.5703125 105.2421875 C-298 103 -298 103 -297 100 C-296.98432829 98.2977706 -297.03265431 96.5945339 -297.12109375 94.89453125 C-297.16943359 93.91162109 -297.21777344 92.92871094 -297.26757812 91.91601562 C-297.35168945 90.37977539 -297.35168945 90.37977539 -297.4375 88.8125 C-297.48970703 87.77673828 -297.54191406 86.74097656 -297.59570312 85.67382812 C-297.72538393 83.11557951 -297.86034978 80.55772062 -298 78 C-297.34 78 -296.68 78 -296 78 C-296.66 75.69 -297.32 73.38 -298 71 C-297.505 70.505 -297.505 70.505 -297 70 C-296.90141397 68.5444063 -296.87027857 67.08392081 -296.875 65.625 C-296.87242187 64.83351563 -296.86984375 64.04203125 -296.8671875 63.2265625 C-296.91382334 60.82656504 -296.91382334 60.82656504 -298 58 C-297.67698087 56.66413042 -297.34174706 55.33120165 -297 54 C-296.94138295 51.94612857 -296.93874526 49.89036536 -296.97265625 47.8359375 C-296.98490234 46.63066406 -296.99714844 45.42539062 -297.00976562 44.18359375 C-297.04459822 41.66790663 -297.0835815 39.15227315 -297.12695312 36.63671875 C-297.23247033 24.95534299 -296.84564741 15.98482949 -288.375 7.3125 C-281.88888186 2.23831447 -273.45958652 1.55481693 -265.51464844 1.67529297 C-264.62549744 1.67646118 -263.73634644 1.67762939 -262.82025146 1.67883301 C-259.91637805 1.68595096 -257.01311433 1.71410009 -254.109375 1.7421875 C-252.07538376 1.75033573 -250.04138606 1.75699459 -248.00738525 1.76223755 C-242.67659124 1.77927934 -237.34605571 1.81349001 -232.01538086 1.85229492 C-223.470551 1.91170944 -214.92558943 1.94542427 -206.38062286 1.97806168 C-203.40373073 1.99198012 -200.42697028 2.01357361 -197.45013428 2.03634644 C-195.62268158 2.0463719 -193.795228 2.05623764 -191.96777344 2.06591797 C-190.73329468 2.07838058 -190.73329468 2.07838058 -189.47387695 2.09109497 C-186.07644427 2.10419458 -182.9901401 1.99834366 -179.62701416 1.43338013 C-177 1 -177 1 -174 2 C-171.36195411 1.60602665 -171.36195411 1.60602665 -169 1 C-169 1.66 -169 2.32 -169 3 C-168.38253906 2.84402344 -167.76507813 2.68804687 -167.12890625 2.52734375 C-162.00878035 1.35057204 -157.8707236 0.92403086 -152.6953125 1.703125 C-149.04767299 2.10489399 -145.41493386 2.1225153 -141.75 2.125 C-141.06405762 2.12935059 -140.37811523 2.13370117 -139.67138672 2.13818359 C-136.76271398 2.13037031 -134.05773769 2.01177333 -131.203125 1.4296875 C-129 1 -129 1 -126 2 C-125.175 1.835 -124.35 1.67 -123.5 1.5 C-121 1 -121 1 -118 2 C-115.66508361 1.67794257 -113.33157492 1.34541851 -111 1 C-110.67 1.33 -110.34 1.66 -110 2 C-109.319375 1.855625 -108.63875 1.71125 -107.9375 1.5625 C-103.20071105 0.65545531 -98.62483551 0.45838816 -94 2 C-93.175 1.835 -92.35 1.67 -91.5 1.5 C-89 1 -89 1 -86 2 C-84.21285166 2.0938368 -82.42242142 2.13070531 -80.6328125 2.1328125 C-79.58222656 2.13410156 -78.53164063 2.13539063 -77.44921875 2.13671875 C-76.35222656 2.13285156 -75.25523437 2.12898438 -74.125 2.125 C-72.49111328 2.13080078 -72.49111328 2.13080078 -70.82421875 2.13671875 C-69.77105469 2.13542969 -68.71789062 2.13414062 -67.6328125 2.1328125 C-66.67262207 2.13168457 -65.71243164 2.13055664 -64.72314453 2.12939453 C-62.04980346 2.00236649 -59.61480652 1.54367264 -57 1 C-54.21560936 1.16002245 -51.48599858 1.50173051 -48.71875 1.84375 C-45.94417484 2.00320834 -43.70267557 1.5709878 -41 1 C-40.67 1.33 -40.34 1.66 -40 2 C-38.14149187 2.1001331 -36.27917135 2.13081228 -34.41796875 2.1328125 C-33.25716797 2.13410156 -32.09636719 2.13539063 -30.90039062 2.13671875 C-29.06250977 2.13091797 -29.06250977 2.13091797 -27.1875 2.125 C-26.00478516 2.12886719 -24.82207031 2.13273437 -23.60351562 2.13671875 C-11.09452218 3.11011808 -11.09452218 3.11011808 0 0 Z M-276 26 C-279.83536348 33.67072695 -278.14061428 44.98238501 -278.12698364 53.31596375 C-278.12813736 54.85815636 -278.12972657 56.4003487 -278.13171089 57.94254047 C-278.13586961 62.15922723 -278.1338292 66.37589123 -278.13072467 70.59257805 C-278.12845674 75.14813585 -278.13195708 79.7036898 -278.13470459 84.25924683 C-278.13914603 93.17440584 -278.13819313 102.08955642 -278.13529195 111.00471576 C-278.13303196 118.24984165 -278.13272798 125.49496518 -278.13381577 132.74009132 C-278.133969 133.77192511 -278.13412223 134.80375889 -278.13428011 135.86686036 C-278.13459984 137.96308591 -278.13492405 140.05931145 -278.1352527 142.15553699 C-278.13810262 161.8004486 -278.13482789 181.44535554 -278.12945233 201.09026638 C-278.12498274 217.94632901 -278.12576245 234.80238476 -278.13037109 251.65844727 C-278.13572203 271.2385632 -278.13783007 290.81867505 -278.13475883 310.39879161 C-278.13444028 312.48631306 -278.13412591 314.57383452 -278.13381577 316.66135597 C-278.13366149 317.68843424 -278.13350721 318.71551251 -278.13334826 319.77371436 C-278.13248482 327.01163157 -278.13394224 334.24954619 -278.13629532 341.487463 C-278.13909918 350.30563012 -278.13834256 359.12378835 -278.13301457 367.94195446 C-278.13038581 372.44101313 -278.1293586 376.94005696 -278.13266373 381.43911552 C-278.13564348 385.55751779 -278.13400581 389.67589145 -278.12868617 393.79429112 C-278.12756921 395.2840124 -278.12813723 396.7737361 -278.13056196 398.26345583 C-278.13360654 400.28940857 -278.12988311 402.31536809 -278.12584114 404.34131908 C-278.12567879 405.46632578 -278.12551644 406.59133248 -278.12534916 407.75043029 C-277.95518988 414.84034051 -277.95518988 414.84034051 -274.6875 420.875 C-271.08403445 423.72425183 -268.32054126 424.12755218 -263.81396484 424.11352539 C-262.59282486 424.11341209 -262.59282486 424.11341209 -261.34701538 424.11329651 C-260.04215683 424.10555458 -260.04215683 424.10555458 -258.7109375 424.09765625 C-257.36148544 424.09553383 -257.36148544 424.09553383 -255.98477173 424.09336853 C-253.11481375 424.0877795 -250.2449343 424.07523497 -247.375 424.0625 C-245.43489697 424.05748305 -243.4947927 424.05292048 -241.5546875 424.04882812 C-236.70309741 424.03763502 -231.85156275 424.0196041 -227 424 C-208 424 -208 424 -204.93359375 424.03515625 C-203.77988281 424.04417969 -202.62617188 424.05320312 -201.4375 424.0625 C-199.70306641 424.07990234 -199.70306641 424.07990234 -197.93359375 424.09765625 C-195.0650849 424.2063791 -195.0650849 424.2063791 -193 423 C-190.67085177 422.63858045 -188.33746522 422.30300475 -186 422 C-186 422.66 -186 423.32 -186 424 C-185.31373535 424 -184.6274707 424 -183.92041016 424 C-176.28027344 424 -168.64013672 424 -161 424 C-159.906875 423.814375 -158.81375 423.62875 -157.6875 423.4375 C-154 423 -154 423 -151.3125 423.5625 C-148.49642958 424.09527008 -147.37952497 423.49821942 -145 422 C-145 422.66 -145 423.32 -145 424 C-141.39007621 423.34414811 -141.39007621 423.34414811 -138 422 C-138 422.66 -138 423.32 -138 424 C-134.06256167 424.05797565 -130.12523281 424.09358789 -126.1875 424.125 C-125.06794922 424.14175781 -123.94839844 424.15851563 -122.79492188 424.17578125 C-121.72177734 424.18222656 -120.64863281 424.18867187 -119.54296875 424.1953125 C-118.55321045 424.20578613 -117.56345215 424.21625977 -116.54370117 424.22705078 C-113.7556048 424.18267404 -113.7556048 424.18267404 -111 422 C-110.67 422.66 -110.34 423.32 -110 424 C-108.68 424 -107.36 424 -106 424 C-104.865625 424.020625 -103.73125 424.04125 -102.5625 424.0625 C-99.50102016 424.00878983 -96.95657353 423.71916653 -94 423 C-93.236875 422.814375 -92.47375 422.62875 -91.6875 422.4375 C-91.130625 422.293125 -90.57375 422.14875 -90 422 C-90 422.66 -90 423.32 -90 424 C-85.60343827 424.02465504 -81.2069128 424.04283842 -76.81030273 424.05493164 C-75.31355082 424.05997121 -73.81680384 424.06680287 -72.32006836 424.07543945 C-70.17300193 424.08752159 -68.02600038 424.09323191 -65.87890625 424.09765625 C-64.5854126 424.10289307 -63.29191895 424.10812988 -61.95922852 424.11352539 C-59.11347596 424.33996932 -59.11347596 424.33996932 -58 423 C-58 423.33 -58 423.66 -58 424 C-56.865625 424 -55.73125 424 -54.5625 424 C-27 424 -27 424 -23.84765625 424.0703125 C-22.59855469 424.08835937 -21.34945313 424.10640625 -20.0625 424.125 C-18.19271484 424.15980469 -18.19271484 424.15980469 -16.28515625 424.1953125 C-12.85650765 424.26858524 -12.85650765 424.26858524 -10 422 C-10 422.66 -10 423.32 -10 424 C-8.865625 424 -7.73125 424 -6.5625 424 C-5.04166667 424 -3.52083333 424 -2 424 C-0.7625 423.814375 0.475 423.62875 1.75 423.4375 C5.08654039 423.00697866 7.71942527 423.13161257 11 424 C11.66 424 12.32 424 13 424 C13 423.34 13 422.68 13 422 C14.79206547 422.14084796 16.58364917 422.28783701 18.375 422.4375 C19.37273437 422.51871094 20.37046875 422.59992188 21.3984375 422.68359375 C24 423 24 423 26 424 C27.32 424 28.64 424 30 424 C46 424 46 424 48.3125 424.0625 C50.93314521 424.10613173 50.93314521 424.10613173 53.125 423.4375 C55 423 55 423 58 424 C58.99 424 59.98 424 61 424 C61 423.34 61 422.68 61 422 C61.66 422.66 62.32 423.32 63 424 C66.19168091 424.27918158 66.19168091 424.27918158 69.94140625 424.1953125 C70.62428207 424.1924826 71.3071579 424.18965271 72.01072693 424.18673706 C74.19482876 424.17553326 76.37852202 424.15043695 78.5625 424.125 C80.03840552 424.11496973 81.51431748 424.10584396 82.99023438 424.09765625 C86.66028284 424.07535836 90.3300961 424.03978713 94 424 C94.33 424 94.66 424 95 424 C96.155 423.814375 97.31 423.62875 98.5 423.4375 C99.655 423.293125 100.81 423.14875 102 423 C102.33 423.33 102.66 423.66 103 424 C108.27951886 424.42040613 113.22479306 424.54677703 118 422 C118 422.66 118 423.32 118 424 C121.04221065 424.08132642 124.0822238 424.14065374 127.125 424.1875 C128.40890625 424.22520508 128.40890625 424.22520508 129.71875 424.26367188 C134.88096906 424.32323594 138.60943137 424.04330692 143 421 C144.86414282 418.03619034 145.24836095 415.77553815 145.24050903 412.30499268 C145.24325836 411.36552292 145.24600769 410.42605316 145.24884033 409.45811462 C145.24164978 408.43456375 145.23445923 407.41101288 145.22705078 406.35644531 C145.22748886 404.73159966 145.22748886 404.73159966 145.22793579 403.07392883 C145.22654197 399.49191286 145.21097804 395.91010465 145.1953125 392.328125 C145.19158256 389.84519565 145.1887355 387.36226484 145.18673706 384.8793335 C145.17987987 379.01100485 145.1641154 373.14275297 145.14403808 367.27445579 C145.11947951 359.93688881 145.10874595 352.59931745 145.09765625 345.26171875 C145.07620347 332.17444127 145.04244968 319.08722536 145 306 C144.67 306 144.34 306 144 306 C143.67 307.65 143.34 309.3 143 311 C143 303.41 143 295.82 143 288 C143.33 293.28 143.66 298.56 144 304 C144.33 304 144.66 304 145 304 C145 294.1 145 284.2 145 274 C144.34 274.33 143.68 274.66 143 275 C143 271.04 143 267.08 143 263 C143.33 266.3 143.66 269.6 144 273 C144.33 273 144.66 273 145 273 C145 249.57 145 226.14 145 202 C144.34 201.67 143.68 201.34 143 201 C143 200.01 143 199.02 143 198 C143.66 198.99 144.32 199.98 145 201 C145 200.2479126 145 199.4958252 145 198.72094727 C145 174.9103465 145 174.9103465 145.02018738 169.3706665 C145.08082729 152.27007138 145.12611198 135.16949951 145.15543652 118.06882095 C145.17091059 109.27923502 145.1920148 100.48972959 145.22631836 91.70019531 C145.2562142 84.0363242 145.2755732 76.3725114 145.28226548 68.70858359 C145.28617687 64.65121217 145.2953716 60.59400768 145.31719017 56.53668976 C145.33755804 52.7183496 145.34383324 48.9002451 145.33932304 45.08185577 C145.34014806 43.68101724 145.34611135 42.2801708 145.35761642 40.87937927 C145.37256494 38.96540029 145.36716072 37.05129473 145.36076355 35.13726807 C145.36352893 34.06652164 145.36629431 32.99577522 145.36914349 31.89258194 C144.93030686 28.45388952 144.21049589 26.67464452 142 24 C137.55346091 22.13118195 133.73381579 21.7482343 128.93782043 21.74273109 C128.24721523 21.73922502 127.55661003 21.73571895 126.8450774 21.73210663 C124.5318101 21.72280545 122.21879526 21.72771255 119.90551758 21.73257446 C118.22994437 21.72883758 116.55437291 21.7242359 114.87880421 21.71884382 C110.27488503 21.70660358 105.67103846 21.70687548 101.06710672 21.70923257 C96.10180445 21.70964046 91.13652554 21.69860433 86.17123413 21.68911743 C76.44438774 21.67250188 66.7175656 21.66700767 56.99070621 21.66589268 C49.08662492 21.66494266 41.18255165 21.6608347 33.2784729 21.65449142 C10.87727518 21.6368791 -11.52390338 21.62765278 -33.92510808 21.62915237 C-35.73673524 21.62927224 -35.73673524 21.62927224 -37.58496094 21.62939453 C-39.39879503 21.62951717 -39.39879503 21.62951717 -41.24927223 21.62964229 C-60.8578451 21.63045565 -80.46634125 21.61130546 -100.07489192 21.5831178 C-120.20063719 21.55441444 -140.32634499 21.54057603 -160.45211124 21.54230535 C-171.75459598 21.54297003 -183.05700023 21.53744318 -194.35946655 21.51594925 C-203.98001551 21.49777118 -213.60044749 21.49336245 -223.22100616 21.5069681 C-228.13111917 21.51351424 -233.04100752 21.51355562 -237.9510994 21.4962616 C-242.44413887 21.48059887 -246.93677428 21.48332448 -251.42980349 21.50082986 C-253.05690898 21.50391477 -254.68404413 21.50021161 -256.31111467 21.48910971 C-258.52050813 21.47503046 -260.72847596 21.48553991 -262.93782043 21.50222206 C-264.16562131 21.50178733 -265.39342218 21.50135259 -266.65842915 21.50090468 C-270.66960707 22.10001217 -272.8542226 23.48698116 -276 26 Z " fill="#070707" transform="translate(578,266)"/>
<path d="M0 0 C1.14275391 -0.020625 2.28550781 -0.04125 3.46289062 -0.0625 C14.36076708 -0.11234735 23.35834334 1.55308301 31.4375 9.25 C38.86760088 17.38772953 41.0627627 24.80225464 40.78125 35.78125 C39.92499442 44.42164722 36.13142362 51.67769638 29.4375 57.25 C21.6365401 62.05622899 14.7790306 64.39699748 5.6015625 64.34765625 C4.53808594 64.34443359 3.47460938 64.34121094 2.37890625 64.33789062 C1.28449219 64.32951172 0.19007813 64.32113281 -0.9375 64.3125 C-2.05511719 64.30798828 -3.17273438 64.30347656 -4.32421875 64.29882812 C-7.07036804 64.28709244 -9.81640586 64.27067363 -12.5625 64.25 C-12.8925 63.59 -13.2225 62.93 -13.5625 62.25 C-13.2325 61.26 -12.9025 60.27 -12.5625 59.25 C-13.5525 58.92 -14.5425 58.59 -15.5625 58.25 C-14.5725 58.25 -13.5825 58.25 -12.5625 58.25 C-12.67737748 56.66590006 -12.80484508 55.08271037 -12.9375 53.5 C-13.00710938 52.61828125 -13.07671875 51.7365625 -13.1484375 50.828125 C-13.56100055 48.25933618 -14.27410957 46.49158985 -15.5625 44.25 C-14.5725 43.755 -14.5725 43.755 -13.5625 43.25 C-12.90477572 40.22065509 -12.90477572 40.22065509 -12.5625 37.25 C-13.2225 36.92 -13.8825 36.59 -14.5625 36.25 C-13.9025 36.25 -13.2425 36.25 -12.5625 36.25 C-13.2225 33.61 -13.8825 30.97 -14.5625 28.25 C-13.9025 28.25 -13.2425 28.25 -12.5625 28.25 C-12.913125 27.13625 -13.26375 26.0225 -13.625 24.875 C-14.5625 21.25 -14.5625 21.25 -13.5625 19.25 C-13.49184383 17.20944995 -13.47828024 15.16665743 -13.5 13.125 C-13.50902344 12.02929688 -13.51804687 10.93359375 -13.52734375 9.8046875 C-13.53894531 8.96164062 -13.55054688 8.11859375 -13.5625 7.25 C-14.2225 6.92 -14.8825 6.59 -15.5625 6.25 C-15.5625 4.6 -15.5625 2.95 -15.5625 1.25 C-10.52495641 -0.4291812 -5.27419687 0.02324715 0 0 Z M-13.5625 2.25 C-13.5625 5.25 -13.5625 5.25 -13.5625 5.25 Z " fill="#050505" transform="translate(591.5625,397.75)"/>
<path d="M0 0 C4.29 0 8.58 0 13 0 C13 6.6 13 13.2 13 20 C18.61 20 24.22 20 30 20 C30 23.96 30 27.92 30 32 C24.39 32 18.78 32 13 32 C13 38.27 13 44.54 13 51 C8.71 51 4.42 51 0 51 C0 44.73 0 38.46 0 32 C-5.61 32 -11.22 32 -17 32 C-17 28.04 -17 24.08 -17 20 C-11.39 20 -5.78 20 0 20 C0 13.4 0 6.8 0 0 Z " fill="#F8F8F8" transform="translate(505,453)"/>
<path d="M0 0 C0.33 0 0.66 0 1 0 C1 127.38 1 254.76 1 386 C0.67 386 0.34 386 0 386 C-0.00808685 384.74354675 -0.01617371 383.48709351 -0.02450562 382.19256592 C-0.10193053 370.36193995 -0.18966065 358.5314295 -0.28752708 346.70095444 C-0.33751085 340.61853067 -0.38384082 334.53612444 -0.421875 328.45361328 C-0.45870134 322.58561584 -0.50505428 316.71776445 -0.55806351 310.84989166 C-0.57662152 308.60918994 -0.59172425 306.36845688 -0.60334396 304.12770844 C-0.62018214 300.99351487 -0.64921173 297.85965684 -0.68115234 294.72558594 C-0.68331253 293.79554245 -0.68547272 292.86549896 -0.68769836 291.90727234 C-0.69886185 291.05194412 -0.71002533 290.19661591 -0.7215271 289.31536865 C-0.72705786 288.57424709 -0.73258862 287.83312553 -0.73828697 287.06954575 C-1.03831742 284.6969977 -1.88713193 283.09985632 -3 281 C-3.24291992 278.56152344 -3.24291992 278.56152344 -3.23046875 275.859375 C-3.22853516 274.87066406 -3.22660156 273.88195312 -3.22460938 272.86328125 C-3.20624023 271.32220703 -3.20624023 271.32220703 -3.1875 269.75 C-3.18685547 268.73808594 -3.18621094 267.72617187 -3.18554688 266.68359375 C-3.15255249 261.03055591 -2.80552585 255.59357151 -2 250 C-1.93616321 247.89202606 -1.93616321 247.89202606 -2.5 245.4375 C-3.09944619 241.31630746 -3.48996708 237.15226341 -3 233 C-2.01 232.01 -2.01 232.01 -1 231 C-0.69310215 228.46577322 -0.69310215 228.46577322 -0.74121094 225.48046875 C-0.73490662 224.32587158 -0.72860229 223.17127441 -0.72210693 221.98168945 C-0.7261554 220.72960693 -0.73020386 219.47752441 -0.734375 218.1875 C-0.73246155 216.90770264 -0.7305481 215.62790527 -0.72857666 214.30932617 C-0.72562618 211.59907207 -0.72992045 208.88894973 -0.73925781 206.17871094 C-0.75065247 202.70150769 -0.74409257 199.22461318 -0.73211288 195.74742126 C-0.72315575 192.43575596 -0.72942365 189.12417409 -0.734375 185.8125 C-0.73032654 184.56041748 -0.72627808 183.30833496 -0.72210693 182.01831055 C-0.72841125 180.86371338 -0.73471558 179.70911621 -0.74121094 178.51953125 C-0.74280212 177.49964111 -0.74439331 176.47975098 -0.74603271 175.42895508 C-0.76120641 172.81896692 -0.76120641 172.81896692 -3 171 C-2.9765625 168.3984375 -2.9765625 168.3984375 -2.625 165.375 C-2.51414062 164.37210938 -2.40328125 163.36921875 -2.2890625 162.3359375 C-2.19367187 161.56507813 -2.09828125 160.79421875 -2 160 C-1.67 160 -1.34 160 -1 160 C-1 156.37 -1 152.74 -1 149 C-1.33 149 -1.66 149 -2 149 C-2 147.35 -2 145.7 -2 144 C-1.67 144 -1.34 144 -1 144 C-0.67 96.48 -0.34 48.96 0 0 Z " fill="#2B2B2B" transform="translate(723,296)"/>
<path d="M0 0 C0.33 0 0.66 0 1 0 C1 7.26 1 14.52 1 22 C-1 20 -1 20 -1.23046875 16.69921875 C-1.22647678 15.36190842 -1.21171815 14.02459698 -1.1875 12.6875 C-1.18105469 11.37136719 -1.17460938 10.05523438 -1.16796875 8.69921875 C-1.02973512 5.6548642 -0.71349651 2.95102158 0 0 Z " fill="#2B2A2A" transform="translate(721,591)"/>
<path d="M0 0 C0.33 0 0.66 0 1 0 C1 5.28 1 10.56 1 16 C-1.96968084 11.54547875 -1.34903947 7.09423683 -0.5 2 C-0.335 1.34 -0.17 0.68 0 0 Z " fill="#2A2929" transform="translate(721,414)"/>
<path d="M0 0 C0.33 0 0.66 0 1 0 C1 4.95 1 9.9 1 15 C0.67 15 0.34 15 0 15 C0 10.05 0 5.1 0 0 Z " fill="#292929" transform="translate(721,338)"/>
<path d="M0 0 C0.33 0 0.66 0 1 0 C1 4.62 1 9.24 1 14 C0.67 14 0.34 14 0 14 C0 9.38 0 4.76 0 0 Z " fill="#2B2B2B" transform="translate(721,511)"/>
<path d="M0 0 C0.33 0 0.66 0 1 0 C1 4.62 1 9.24 1 14 C0.67 14 0.34 14 0 14 C0 9.38 0 4.76 0 0 Z " fill="#292928" transform="translate(721,392)"/>
<path d="M0 0 C0.33 0 0.66 0 1 0 C1 4.29 1 8.58 1 13 C0.67 13 0.34 13 0 13 C-0.19397476 11.02145742 -0.38001321 9.0421352 -0.5625 7.0625 C-0.66691406 5.96035156 -0.77132812 4.85820312 -0.87890625 3.72265625 C-0.91886719 2.82417969 -0.95882812 1.92570312 -1 1 C-0.67 0.67 -0.34 0.34 0 0 Z " fill="#282928" transform="translate(721,360)"/>
<path d="M0 0 C0.33 0 0.66 0 1 0 C1 3.63 1 7.26 1 11 C0.67 11 0.34 11 0 11 C0 7.37 0 3.74 0 0 Z " fill="#2C2D2C" transform="translate(721,648)"/>
<path d="M0 0 C0.66 0 1.32 0 2 0 C2 1.65 2 3.3 2 5 C1.34 4.67 0.68 4.34 0 4 C0 2.68 0 1.36 0 0 Z " fill="#222121" transform="translate(576,528)"/>
<path d="M0 0 C0.33 0 0.66 0 1 0 C1 2.64 1 5.28 1 8 C0.67 8 0.34 8 0 8 C0 5.36 0 2.72 0 0 Z " fill="#2B2B2B" transform="translate(721,617)"/>
<path d="M0 0 C0.33 0 0.66 0 1 0 C1 2.64 1 5.28 1 8 C0.67 8 0.34 8 0 8 C0 5.36 0 2.72 0 0 Z " fill="#2B2A2B" transform="translate(721,502)"/>
<path d="M0 0 C0.33 0 0.66 0 1 0 C1 1.98 1 3.96 1 6 C0.34 5.34 -0.32 4.68 -1 4 C-0.625 1.875 -0.625 1.875 0 0 Z " fill="#2A2A2A" transform="translate(721,495)"/>
<path d="M0 0 C0.33 0 0.66 0 1 0 C1 2.31 1 4.62 1 7 C0.67 7 0.34 7 0 7 C0 4.69 0 2.38 0 0 Z " fill="#2B2A2A" transform="translate(721,431)"/>
<path d="M0 0 C0.33 0 0.66 0 1 0 C1 1.98 1 3.96 1 6 C0.67 6 0.34 6 0 6 C0 4.02 0 2.04 0 0 Z " fill="#2B2B2B" transform="translate(721,631)"/>
<path d="M0 0 C0.33 1.32 0.66 2.64 1 4 C0.34 3.67 -0.32 3.34 -1 3 C-0.67 2.01 -0.34 1.02 0 0 Z " fill="#212121" transform="translate(577,562)"/>
<path d="M0 0 C0.33 0 0.66 0 1 0 C1 1.98 1 3.96 1 6 C0.67 6 0.34 6 0 6 C0 4.02 0 2.04 0 0 Z " fill="#353635" transform="translate(280,535)"/>
<path d="M0 0 C0.33 0 0.66 0 1 0 C1 1.98 1 3.96 1 6 C0.67 6 0.34 6 0 6 C0 4.02 0 2.04 0 0 Z " fill="#252524" transform="translate(316,530)"/>
<path d="M0 0 C0.33 0 0.66 0 1 0 C1 1.98 1 3.96 1 6 C0.67 6 0.34 6 0 6 C0 4.02 0 2.04 0 0 Z " fill="#1E1E1E" transform="translate(395,531)"/>
<path d="M0 0 C0.66 0 1.32 0 2 0 C2 1.65 2 3.3 2 5 C0 1.125 0 1.125 0 0 Z " fill="#2B2B2B" transform="translate(720,312)"/>
<path d="M0 0 C0.33 0 0.66 0 1 0 C1 1.65 1 3.3 1 5 C0.67 5 0.34 5 0 5 C0 3.35 0 1.7 0 0 Z " fill="#2D2E2E" transform="translate(721,666)"/>
<path d="M0 0 C0.33 0 0.66 0 1 0 C1 1.65 1 3.3 1 5 C0.67 5 0.34 5 0 5 C0 3.35 0 1.7 0 0 Z " fill="#252524" transform="translate(316,610)"/>
<path d="M0 0 C0.33 1.32 0.66 2.64 1 4 C0.34 3.01 -0.32 2.02 -1 1 C-0.67 0.67 -0.34 0.34 0 0 Z " fill="#212120" transform="translate(577,554)"/>
<path d="M0 0 C0.33 0 0.66 0 1 0 C1 1.65 1 3.3 1 5 C0.67 5 0.34 5 0 5 C0 3.35 0 1.7 0 0 Z " fill="#242525" transform="translate(316,546)"/>
<path d="M0 0 C0.33 0 0.66 0 1 0 C1 1.65 1 3.3 1 5 C0.67 5 0.34 5 0 5 C0 3.35 0 1.7 0 0 Z " fill="#202021" transform="translate(639,535)"/>
<path d="M0 0 C0.33 0 0.66 0 1 0 C1 1.65 1 3.3 1 5 C0.67 5 0.34 5 0 5 C0 3.35 0 1.7 0 0 Z " fill="#1E1E1D" transform="translate(395,524)"/>
<path d="M0 0 C0.99 0.495 0.99 0.495 2 1 C1.67 1.99 1.34 2.98 1 4 C0.67 2.68 0.34 1.36 0 0 Z " fill="#292929" transform="translate(720,409)"/>
<path d="M0 0 C1.65 0 3.3 0 5 0 C5 0.33 5 0.66 5 1 C3.35 1 1.7 1 0 1 C0 0.67 0 0.34 0 0 Z " fill="#1E1D1D" transform="translate(390,396)"/>
<path d="M0 0 C0.33 0 0.66 0 1 0 C1 1.65 1 3.3 1 5 C0.67 5 0.34 5 0 5 C0 3.35 0 1.7 0 0 Z " fill="#292929" transform="translate(721,328)"/>
<path d="M0 0 C4 1 4 1 4 1 Z " fill="#373636" transform="translate(646,688)"/>
<path d="M0 0 C1 4 1 4 1 4 Z " fill="#2C2C2B" transform="translate(721,626)"/>
<path d="M0 0 C4 1 4 1 4 1 Z " fill="#252423" transform="translate(421,571)"/>
<path d="M0 0 C1 4 1 4 1 4 Z " fill="#252524" transform="translate(316,564)"/>
<path d="M0 0 C1 4 1 4 1 4 Z " fill="#262626" transform="translate(316,497)"/>
<path d="M0 0 C1 4 1 4 1 4 Z " fill="#2C2B2C" transform="translate(721,490)"/>
<path d="M0 0 C1 4 1 4 1 4 Z " fill="#252525" transform="translate(316,484)"/>
<path d="M0 0 C0 3 0 3 0 3 Z " fill="#201F20" transform="translate(577,431)"/>
<path d="M0 0 C1 4 1 4 1 4 Z " fill="#292A28" transform="translate(721,386)"/>
<path d="M0 0 C1 4 1 4 1 4 Z " fill="#282828" transform="translate(721,377)"/>
<path d="M0 0 C4 1 4 1 4 1 Z " fill="#222222" transform="translate(608,365)"/>
<path d="M0 0 C1 4 1 4 1 4 Z " fill="#2C2C2B" transform="translate(721,304)"/>
<path d="M0 0 C3 1 3 1 3 1 Z " fill="#373836" transform="translate(654,688)"/>
<path d="M0 0 C0.99 0.495 0.99 0.495 2 1 C1.01 1.495 1.01 1.495 0 2 C0 1.34 0 0.68 0 0 Z " fill="#323434" transform="translate(720,682)"/>
<path d="" fill="#262525" transform="translate(0,0)"/>
<path d="" fill="#373737" transform="translate(0,0)"/>
<path d="" fill="#2B2A2A" transform="translate(0,0)"/>
<path d="" fill="#29292A" transform="translate(0,0)"/>
<path d="M0 0 C0.66 0 1.32 0 2 0 C1.67 0.66 1.34 1.32 1 2 C0.67 1.34 0.34 0.68 0 0 Z " fill="#202020" transform="translate(576,579)"/>
<path d="" fill="#353536" transform="translate(0,0)"/>
<path d="" fill="#212021" transform="translate(0,0)"/>
<path d="" fill="#232222" transform="translate(0,0)"/>
<path d="M0 0 C0.66 0 1.32 0 2 0 C1.67 0.66 1.34 1.32 1 2 C0.67 1.34 0.34 0.68 0 0 Z " fill="#222223" transform="translate(576,535)"/>
<path d="" fill="#242525" transform="translate(0,0)"/>
<path d="" fill="#363736" transform="translate(0,0)"/>
<path d="" fill="#2B2B2A" transform="translate(0,0)"/>
<path d="" fill="#2B2B2B" transform="translate(0,0)"/>
<path d="" fill="#252525" transform="translate(0,0)"/>
<path d="" fill="#2B2C2C" transform="translate(0,0)"/>
<path d="" fill="#262525" transform="translate(0,0)"/>
<path d="" fill="#2B2A2A" transform="translate(0,0)"/>
<path d="" fill="#2A2829" transform="translate(0,0)"/>
<path d="M0 0 C0.66 0 1.32 0 2 0 C1.67 0.66 1.34 1.32 1 2 C0.67 1.34 0.34 0.68 0 0 Z " fill="#202020" transform="translate(576,447)"/>
<path d="" fill="#252422" transform="translate(0,0)"/>
<path d="" fill="#242424" transform="translate(0,0)"/>
<path d="M0 0 C3 1 3 1 3 1 Z " fill="#21201F" transform="translate(561,365)"/>
<path d="" fill="#292A29" transform="translate(0,0)"/>
<path d="" fill="#242624" transform="translate(0,0)"/>
<path d="" fill="#2B2B2B" transform="translate(0,0)"/>
<path d="" fill="#302F30" transform="translate(0,0)"/>
<path d="" fill="#252525" transform="translate(0,0)"/>
<path d="" fill="#262524" transform="translate(0,0)"/>
<path d="" fill="#373837" transform="translate(0,0)"/>
<path d="" fill="#2B2C2B" transform="translate(0,0)"/>
<path d="" fill="#363635" transform="translate(0,0)"/>
<path d="M0 0 C2 1 2 1 2 1 Z " fill="#232221" transform="translate(428,603)"/>
<path d="M0 0 C2 1 2 1 2 1 Z " fill="#242524" transform="translate(414,603)"/>
<path d="" fill="#222322" transform="translate(0,0)"/>
<path d="M0 0 C2 1 2 1 2 1 Z " fill="#232222" transform="translate(624,600)"/>
<path d="M0 0 C2 1 2 1 2 1 Z " fill="#252425" transform="translate(440,600)"/>
<path d="" fill="#212120" transform="translate(0,0)"/>
<path d="" fill="#242424" transform="translate(0,0)"/>
<path d="" fill="#252424" transform="translate(0,0)"/>
<path d="" fill="#212020" transform="translate(0,0)"/>
<path d="M0 0 C2 1 2 1 2 1 Z " fill="#212020" transform="translate(576,552)"/>
<path d="" fill="#1F201F" transform="translate(0,0)"/>
<path d="" fill="#262526" transform="translate(0,0)"/>
<path d="" fill="#242424" transform="translate(0,0)"/>
<path d="" fill="#242424" transform="translate(0,0)"/>
<path d="" fill="#242523" transform="translate(0,0)"/>
<path d="" fill="#272624" transform="translate(0,0)"/>
<path d="M0 0 C2 1 2 1 2 1 Z " fill="#232522" transform="translate(660,502)"/>
<path d="" fill="#262525" transform="translate(0,0)"/>
<path d="" fill="#373738" transform="translate(0,0)"/>
<path d="" fill="#262525" transform="translate(0,0)"/>
<path d="" fill="#252624" transform="translate(0,0)"/>
<path d="" fill="#282829" transform="translate(0,0)"/>
<path d="" fill="#232322" transform="translate(0,0)"/>
<path d="" fill="#252323" transform="translate(0,0)"/>
<path d="M0 0 C2 1 2 1 2 1 Z " fill="#1E1E1D" transform="translate(593,396)"/>
<path d="M0 0 C2 1 2 1 2 1 Z " fill="#1D201D" transform="translate(585,396)"/>
<path d="M0 0 C2 1 2 1 2 1 Z " fill="#1F1F1E" transform="translate(420,396)"/>
<path d="M0 0 C2 1 2 1 2 1 Z " fill="#201E1F" transform="translate(416,396)"/>
<path d="M0 0 C2 1 2 1 2 1 Z " fill="#20201D" transform="translate(409,396)"/>
<path d="" fill="#262524" transform="translate(0,0)"/>
<path d="" fill="#242423" transform="translate(0,0)"/>
<path d="" fill="#282A28" transform="translate(0,0)"/>
<path d="" fill="#363435" transform="translate(0,0)"/>
<path d="" fill="#353637" transform="translate(0,0)"/>
<path d="" fill="#282828" transform="translate(0,0)"/>
<path d="" fill="#2B2A29" transform="translate(0,0)"/>
<path d="" fill="#282827" transform="translate(0,0)"/>
<path d="M0 0 C2 1 2 1 2 1 Z " fill="#40403F" transform="translate(724,267)"/>
<path d="" fill="#3F3F3F" transform="translate(0,0)"/>
<path d="" fill="#515150" transform="translate(0,0)"/>
<path d="" fill="#424443" transform="translate(0,0)"/>
<path d="" fill="#424141" transform="translate(0,0)"/>
<path d="" fill="#434343" transform="translate(0,0)"/>
<path d="" fill="#454342" transform="translate(0,0)"/>
<path d="" fill="#444343" transform="translate(0,0)"/>
<path d="" fill="#404041" transform="translate(0,0)"/>
<path d="" fill="#424243" transform="translate(0,0)"/>
<path d="" fill="#3F4241" transform="translate(0,0)"/>
<path d="" fill="#414142" transform="translate(0,0)"/>
<path d="" fill="#353535" transform="translate(0,0)"/>
<path d="" fill="#363736" transform="translate(0,0)"/>
<path d="" fill="#353635" transform="translate(0,0)"/>
<path d="" fill="#363635" transform="translate(0,0)"/>
<path d="" fill="#343435" transform="translate(0,0)"/>
<path d="" fill="#333433" transform="translate(0,0)"/>
<path d="" fill="#353535" transform="translate(0,0)"/>
<path d="" fill="#353435" transform="translate(0,0)"/>
<path d="" fill="#363435" transform="translate(0,0)"/>
<path d="" fill="#343436" transform="translate(0,0)"/>
<path d="" fill="#363636" transform="translate(0,0)"/>
<path d="" fill="#343534" transform="translate(0,0)"/>
<path d="" fill="#363433" transform="translate(0,0)"/>
<path d="" fill="#333535" transform="translate(0,0)"/>
<path d="" fill="#323031" transform="translate(0,0)"/>
<path d="" fill="#302F2F" transform="translate(0,0)"/>
<path d="" fill="#323331" transform="translate(0,0)"/>
<path d="" fill="#333436" transform="translate(0,0)"/>
<path d="" fill="#302F2E" transform="translate(0,0)"/>
<path d="" fill="#2F2D2D" transform="translate(0,0)"/>
<path d="" fill="#2E2F2F" transform="translate(0,0)"/>
<path d="" fill="#282A2A" transform="translate(0,0)"/>
<path d="" fill="#292A28" transform="translate(0,0)"/>
<path d="" fill="#2C2D2C" transform="translate(0,0)"/>
<path d="" fill="#2D2C2D" transform="translate(0,0)"/>
<path d="" fill="#282928" transform="translate(0,0)"/>
<path d="" fill="#383A3B" transform="translate(0,0)"/>
<path d="" fill="#383938" transform="translate(0,0)"/>
<path d="" fill="#242727" transform="translate(0,0)"/>
<path d="" fill="#272826" transform="translate(0,0)"/>
<path d="" fill="#262727" transform="translate(0,0)"/>
<path d="" fill="#3D3D3D" transform="translate(0,0)"/>
<path d="" fill="#252525" transform="translate(0,0)"/>
<path d="" fill="#262626" transform="translate(0,0)"/>
<path d="" fill="#2A2B2C" transform="translate(0,0)"/>
<path d="" fill="#252625" transform="translate(0,0)"/>
<path d="" fill="#363838" transform="translate(0,0)"/>
<path d="" fill="#262526" transform="translate(0,0)"/>
<path d="" fill="#373838" transform="translate(0,0)"/>
<path d="" fill="#292726" transform="translate(0,0)"/>
<path d="" fill="#242628" transform="translate(0,0)"/>
<path d="" fill="#3C3C3C" transform="translate(0,0)"/>
<path d="" fill="#363738" transform="translate(0,0)"/>
<path d="" fill="#3C3C3E" transform="translate(0,0)"/>
<path d="" fill="#343A38" transform="translate(0,0)"/>
<path d="" fill="#232524" transform="translate(0,0)"/>
<path d="" fill="#252220" transform="translate(0,0)"/>
<path d="" fill="#212122" transform="translate(0,0)"/>
<path d="" fill="#252525" transform="translate(0,0)"/>
<path d="" fill="#242525" transform="translate(0,0)"/>
<path d="" fill="#373737" transform="translate(0,0)"/>
<path d="" fill="#232223" transform="translate(0,0)"/>
<path d="" fill="#212323" transform="translate(0,0)"/>
<path d="" fill="#242324" transform="translate(0,0)"/>
<path d="" fill="#252324" transform="translate(0,0)"/>
<path d="" fill="#232423" transform="translate(0,0)"/>
<path d="" fill="#201F21" transform="translate(0,0)"/>
<path d="" fill="#212321" transform="translate(0,0)"/>
<path d="" fill="#1F201F" transform="translate(0,0)"/>
<path d="" fill="#242426" transform="translate(0,0)"/>
<path d="" fill="#222220" transform="translate(0,0)"/>
<path d="" fill="#222321" transform="translate(0,0)"/>
<path d="" fill="#373638" transform="translate(0,0)"/>
<path d="" fill="#242223" transform="translate(0,0)"/>
<path d="" fill="#222222" transform="translate(0,0)"/>
<path d="" fill="#20211F" transform="translate(0,0)"/>
<path d="" fill="#333535" transform="translate(0,0)"/>
<path d="" fill="#242526" transform="translate(0,0)"/>
<path d="" fill="#252524" transform="translate(0,0)"/>
<path d="" fill="#1F2020" transform="translate(0,0)"/>
<path d="" fill="#212323" transform="translate(0,0)"/>
<path d="" fill="#242325" transform="translate(0,0)"/>
<path d="" fill="#202121" transform="translate(0,0)"/>
<path d="" fill="#222021" transform="translate(0,0)"/>
<path d="" fill="#252624" transform="translate(0,0)"/>
<path d="" fill="#353737" transform="translate(0,0)"/>
<path d="" fill="#242624" transform="translate(0,0)"/>
<path d="" fill="#232021" transform="translate(0,0)"/>
<path d="" fill="#21211F" transform="translate(0,0)"/>
<path d="" fill="#262524" transform="translate(0,0)"/>
<path d="" fill="#222120" transform="translate(0,0)"/>
<path d="" fill="#21201F" transform="translate(0,0)"/>
<path d="" fill="#222321" transform="translate(0,0)"/>
<path d="" fill="#242323" transform="translate(0,0)"/>
<path d="" fill="#252323" transform="translate(0,0)"/>
<path d="" fill="#262524" transform="translate(0,0)"/>
<path d="" fill="#242426" transform="translate(0,0)"/>
<path d="" fill="#3B3C3C" transform="translate(0,0)"/>
<path d="" fill="#222122" transform="translate(0,0)"/>
<path d="" fill="#212122" transform="translate(0,0)"/>
<path d="" fill="#2B2B2C" transform="translate(0,0)"/>
<path d="" fill="#222422" transform="translate(0,0)"/>
<path d="" fill="#3D3D3F" transform="translate(0,0)"/>
<path d="" fill="#211F20" transform="translate(0,0)"/>
<path d="" fill="#353938" transform="translate(0,0)"/>
<path d="" fill="#242424" transform="translate(0,0)"/>
<path d="" fill="#252526" transform="translate(0,0)"/>
<path d="" fill="#252526" transform="translate(0,0)"/>
<path d="" fill="#363737" transform="translate(0,0)"/>
<path d="" fill="#343636" transform="translate(0,0)"/>
<path d="" fill="#232122" transform="translate(0,0)"/>
<path d="" fill="#21201C" transform="translate(0,0)"/>
<path d="" fill="#222323" transform="translate(0,0)"/>
<path d="" fill="#232222" transform="translate(0,0)"/>
<path d="" fill="#242626" transform="translate(0,0)"/>
<path d="" fill="#1E1E1E" transform="translate(0,0)"/>
<path d="" fill="#252626" transform="translate(0,0)"/>
<path d="" fill="#3F3F3D" transform="translate(0,0)"/>
<path d="" fill="#3F3F40" transform="translate(0,0)"/>
<path d="" fill="#383636" transform="translate(0,0)"/>
<path d="" fill="#252525" transform="translate(0,0)"/>
<path d="" fill="#262625" transform="translate(0,0)"/>
<path d="" fill="#363638" transform="translate(0,0)"/>
<path d="" fill="#232222" transform="translate(0,0)"/>
<path d="" fill="#252626" transform="translate(0,0)"/>
<path d="" fill="#262726" transform="translate(0,0)"/>
<path d="" fill="#262626" transform="translate(0,0)"/>
<path d="" fill="#232021" transform="translate(0,0)"/>
<path d="" fill="#252524" transform="translate(0,0)"/>
<path d="" fill="#252727" transform="translate(0,0)"/>
<path d="" fill="#262623" transform="translate(0,0)"/>
<path d="" fill="#262726" transform="translate(0,0)"/>
<path d="" fill="#373637" transform="translate(0,0)"/>
<path d="" fill="#252627" transform="translate(0,0)"/>
<path d="" fill="#262524" transform="translate(0,0)"/>
<path d="" fill="#242424" transform="translate(0,0)"/>
<path d="" fill="#242423" transform="translate(0,0)"/>
<path d="" fill="#252525" transform="translate(0,0)"/>
<path d="" fill="#262426" transform="translate(0,0)"/>
<path d="" fill="#252625" transform="translate(0,0)"/>
<path d="" fill="#252323" transform="translate(0,0)"/>
<path d="" fill="#353736" transform="translate(0,0)"/>
<path d="" fill="#2B2A2A" transform="translate(0,0)"/>
<path d="" fill="#242624" transform="translate(0,0)"/>
<path d="" fill="#2C2B2D" transform="translate(0,0)"/>
<path d="" fill="#262624" transform="translate(0,0)"/>
<path d="" fill="#282926" transform="translate(0,0)"/>
<path d="" fill="#373739" transform="translate(0,0)"/>
<path d="" fill="#252526" transform="translate(0,0)"/>
<path d="" fill="#282629" transform="translate(0,0)"/>
<path d="" fill="#282725" transform="translate(0,0)"/>
<path d="" fill="#2B2B29" transform="translate(0,0)"/>
<path d="" fill="#252425" transform="translate(0,0)"/>
<path d="" fill="#232222" transform="translate(0,0)"/>
<path d="" fill="#262726" transform="translate(0,0)"/>
<path d="" fill="#232422" transform="translate(0,0)"/>
<path d="" fill="#232324" transform="translate(0,0)"/>
<path d="" fill="#242524" transform="translate(0,0)"/>
<path d="" fill="#252624" transform="translate(0,0)"/>
<path d="" fill="#252424" transform="translate(0,0)"/>
<path d="" fill="#363837" transform="translate(0,0)"/>
<path d="" fill="#242626" transform="translate(0,0)"/>
<path d="" fill="#252523" transform="translate(0,0)"/>
<path d="" fill="#262626" transform="translate(0,0)"/>
<path d="" fill="#252425" transform="translate(0,0)"/>
<path d="" fill="#262726" transform="translate(0,0)"/>
<path d="" fill="#272526" transform="translate(0,0)"/>
<path d="" fill="#252625" transform="translate(0,0)"/>
<path d="" fill="#212122" transform="translate(0,0)"/>
<path d="" fill="#262625" transform="translate(0,0)"/>
<path d="" fill="#232525" transform="translate(0,0)"/>
<path d="" fill="#3F3F3F" transform="translate(0,0)"/>
<path d="" fill="#353638" transform="translate(0,0)"/>
<path d="" fill="#232625" transform="translate(0,0)"/>
<path d="" fill="#262524" transform="translate(0,0)"/>
<path d="" fill="#211F21" transform="translate(0,0)"/>
<path d="" fill="#232624" transform="translate(0,0)"/>
<path d="" fill="#222220" transform="translate(0,0)"/>
<path d="" fill="#252524" transform="translate(0,0)"/>
<path d="" fill="#343837" transform="translate(0,0)"/>
<path d="" fill="#1F1F20" transform="translate(0,0)"/>
<path d="" fill="#1E1E20" transform="translate(0,0)"/>
<path d="" fill="#353739" transform="translate(0,0)"/>
<path d="" fill="#1F1E1F" transform="translate(0,0)"/>
<path d="" fill="#1F2020" transform="translate(0,0)"/>
<path d="" fill="#1E1E1F" transform="translate(0,0)"/>
<path d="" fill="#252423" transform="translate(0,0)"/>
<path d="" fill="#1E1E1D" transform="translate(0,0)"/>
<path d="" fill="#242423" transform="translate(0,0)"/>
<path d="" fill="#1E1E1E" transform="translate(0,0)"/>
<path d="" fill="#1F1E1F" transform="translate(0,0)"/>
<path d="" fill="#232524" transform="translate(0,0)"/>
<path d="" fill="#262423" transform="translate(0,0)"/>
<path d="" fill="#232325" transform="translate(0,0)"/>
<path d="" fill="#252424" transform="translate(0,0)"/>
<path d="" fill="#373838" transform="translate(0,0)"/>
<path d="" fill="#202221" transform="translate(0,0)"/>
<path d="" fill="#2E2C2D" transform="translate(0,0)"/>
<path d="" fill="#222423" transform="translate(0,0)"/>
<path d="" fill="#202020" transform="translate(0,0)"/>
<path d="" fill="#1D1D1D" transform="translate(0,0)"/>
<path d="" fill="#1E1E1E" transform="translate(0,0)"/>
<path d="" fill="#1C1C1E" transform="translate(0,0)"/>
<path d="" fill="#1D1D1B" transform="translate(0,0)"/>
<path d="" fill="#222322" transform="translate(0,0)"/>
<path d="" fill="#201F20" transform="translate(0,0)"/>
<path d="" fill="#22211F" transform="translate(0,0)"/>
<path d="" fill="#1F1E1F" transform="translate(0,0)"/>
<path d="" fill="#20201E" transform="translate(0,0)"/>
<path d="" fill="#1E1E1D" transform="translate(0,0)"/>
<path d="" fill="#201E1D" transform="translate(0,0)"/>
<path d="" fill="#1F1E1E" transform="translate(0,0)"/>
<path d="" fill="#1F1E1D" transform="translate(0,0)"/>
<path d="" fill="#1E1D1D" transform="translate(0,0)"/>
<path d="" fill="#1E1E1F" transform="translate(0,0)"/>
<path d="" fill="#1E1D1D" transform="translate(0,0)"/>
<path d="" fill="#222423" transform="translate(0,0)"/>
<path d="" fill="#242424" transform="translate(0,0)"/>
<path d="" fill="#3C3A3D" transform="translate(0,0)"/>
<path d="" fill="#242422" transform="translate(0,0)"/>
<path d="" fill="#262422" transform="translate(0,0)"/>
<path d="" fill="#3C3B3B" transform="translate(0,0)"/>
<path d="" fill="#353637" transform="translate(0,0)"/>
<path d="" fill="#282827" transform="translate(0,0)"/>
<path d="" fill="#282827" transform="translate(0,0)"/>
<path d="" fill="#242324" transform="translate(0,0)"/>
<path d="" fill="#262524" transform="translate(0,0)"/>
<path d="" fill="#222423" transform="translate(0,0)"/>
<path d="" fill="#3C3E3E" transform="translate(0,0)"/>
<path d="" fill="#242523" transform="translate(0,0)"/>
<path d="" fill="#242425" transform="translate(0,0)"/>
<path d="" fill="#232325" transform="translate(0,0)"/>
<path d="" fill="#232424" transform="translate(0,0)"/>
<path d="" fill="#242525" transform="translate(0,0)"/>
<path d="" fill="#1E1E1C" transform="translate(0,0)"/>
<path d="" fill="#353534" transform="translate(0,0)"/>
<path d="" fill="#232123" transform="translate(0,0)"/>
<path d="" fill="#212020" transform="translate(0,0)"/>
<path d="" fill="#232221" transform="translate(0,0)"/>
<path d="" fill="#232221" transform="translate(0,0)"/>
<path d="" fill="#201F1E" transform="translate(0,0)"/>
<path d="" fill="#222121" transform="translate(0,0)"/>
<path d="" fill="#222120" transform="translate(0,0)"/>
<path d="" fill="#20211C" transform="translate(0,0)"/>
<path d="" fill="#211F20" transform="translate(0,0)"/>
<path d="" fill="#1F211F" transform="translate(0,0)"/>
<path d="" fill="#232525" transform="translate(0,0)"/>
<path d="" fill="#232824" transform="translate(0,0)"/>
<path d="" fill="#282829" transform="translate(0,0)"/>
<path d="" fill="#4A4A4B" transform="translate(0,0)"/>
<path d="" fill="#3B3B3B" transform="translate(0,0)"/>
<path d="" fill="#262727" transform="translate(0,0)"/>
<path d="" fill="#353637" transform="translate(0,0)"/>
<path d="" fill="#383939" transform="translate(0,0)"/>
<path d="" fill="#353537" transform="translate(0,0)"/>
<path d="" fill="#353335" transform="translate(0,0)"/>
<path d="" fill="#262626" transform="translate(0,0)"/>
<path d="" fill="#272725" transform="translate(0,0)"/>
<path d="" fill="#272727" transform="translate(0,0)"/>
<path d="" fill="#272726" transform="translate(0,0)"/>
<path d="" fill="#272828" transform="translate(0,0)"/>
<path d="" fill="#3B3B3C" transform="translate(0,0)"/>
<path d="" fill="#2D2D2C" transform="translate(0,0)"/>
<path d="" fill="#282827" transform="translate(0,0)"/>
<path d="" fill="#29292B" transform="translate(0,0)"/>
<path d="" fill="#292928" transform="translate(0,0)"/>
<path d="" fill="#2D2F2F" transform="translate(0,0)"/>
<path d="" fill="#2F2E2D" transform="translate(0,0)"/>
<path d="" fill="#323031" transform="translate(0,0)"/>
<path d="" fill="#37393A" transform="translate(0,0)"/>
<path d="" fill="#3E3E3D" transform="translate(0,0)"/>
<path d="" fill="#3A3C3A" transform="translate(0,0)"/>
<path d="" fill="#3C3C3F" transform="translate(0,0)"/>
<path d="" fill="#414041" transform="translate(0,0)"/>
<path d="" fill="#424043" transform="translate(0,0)"/>
<path d="" fill="#3F3E3F" transform="translate(0,0)"/>
<path d="" fill="#403F40" transform="translate(0,0)"/>
<path d="" fill="#414242" transform="translate(0,0)"/>
<path d="" fill="#424241" transform="translate(0,0)"/>
<path d="" fill="#434445" transform="translate(0,0)"/>
<path d="" fill="#3F3E3D" transform="translate(0,0)"/>
<path d="" fill="#3E3E3F" transform="translate(0,0)"/>
<path d="" fill="#3F4040" transform="translate(0,0)"/>
<path d="" fill="#3F3F3F" transform="translate(0,0)"/>
<path d="" fill="#4E4E4F" transform="translate(0,0)"/>
</svg>
